<svg width="16" height="16" viewBox="0 0 16 16" fill="none" xmlns="http://www.w3.org/2000/svg">
<path d="M14.1511 1.01C13.9733 0.42 13.4756 0 12.8889 0H3.11111C2.52444 0 2.03556 0.42 1.84889 1.01L0 7V15C0 15.55 0.4 16 0.888889 16H1.77778C2.26667 16 2.66667 15.55 2.66667 15V14H13.3333V15C13.3333 15.55 13.7333 16 14.2222 16H15.1111C15.6 16 16 15.55 16 15V7L14.1511 1.01ZM3.11111 11C2.37333 11 1.77778 10.33 1.77778 9.5C1.77778 8.67 2.37333 8 3.11111 8C3.84889 8 4.44444 8.67 4.44444 9.5C4.44444 10.33 3.84889 11 3.11111 11ZM12.8889 11C12.1511 11 11.5556 10.33 11.5556 9.5C11.5556 8.67 12.1511 8 12.8889 8C13.6267 8 14.2222 8.67 14.2222 9.5C14.2222 10.33 13.6267 11 12.8889 11ZM1.77778 6L3.11111 1.5H12.8889L14.2222 6H1.77778Z" fill="#38373C"/>
</svg>
