<svg width="38" height="37" viewBox="0 0 38 37" fill="none" xmlns="http://www.w3.org/2000/svg">
<path d="M11.125 33.9168C10.2771 33.9168 9.55147 33.6152 8.94817 33.0119C8.34383 32.4075 8.04167 31.6814 8.04167 30.8335C8.04167 29.9856 8.34383 29.2595 8.94817 28.6551C9.55147 28.0518 10.2771 27.7502 11.125 27.7502C11.9729 27.7502 12.6985 28.0518 13.3018 28.6551C13.9062 29.2595 14.2083 29.9856 14.2083 30.8335C14.2083 31.6814 13.9062 32.4075 13.3018 33.0119C12.6985 33.6152 11.9729 33.9168 11.125 33.9168ZM26.5417 33.9168C25.6937 33.9168 24.9681 33.6152 24.3648 33.0119C23.7605 32.4075 23.4583 31.6814 23.4583 30.8335C23.4583 29.9856 23.7605 29.2595 24.3648 28.6551C24.9681 28.0518 25.6937 27.7502 26.5417 27.7502C27.3896 27.7502 28.1157 28.0518 28.72 28.6551C29.3233 29.2595 29.625 29.9856 29.625 30.8335C29.625 31.6814 29.3233 32.4075 28.72 33.0119C28.1157 33.6152 27.3896 33.9168 26.5417 33.9168ZM9.81458 9.25016L13.5146 16.9585H24.3062L28.5458 9.25016H9.81458ZM8.35 6.16683H31.0896C31.6806 6.16683 32.1302 6.42994 32.4385 6.95616C32.7469 7.48341 32.7597 8.01683 32.4771 8.55641L27.0042 18.4231C26.7215 18.937 26.3423 19.3352 25.8664 19.6179C25.3916 19.9005 24.8715 20.0418 24.3062 20.0418H12.8208L11.125 23.1252H29.625V26.2085H11.125C9.96875 26.2085 9.09514 25.7008 8.50417 24.6853C7.91319 23.6709 7.8875 22.6627 8.42708 21.6606L10.5083 17.8835L4.95833 6.16683H1.875V3.0835H6.88542L8.35 6.16683ZM13.5146 16.9585H24.3062H13.5146Z" fill="#FFFBE5"/>
</svg>
