<svg width="9" height="9" viewBox="0 0 9 9" fill="none" xmlns="http://www.w3.org/2000/svg">
<path fill-rule="evenodd" clip-rule="evenodd" d="M4.18725 7.7805C4.24866 7.82199 4.31767 7.85094 4.39031 7.86568C4.46294 7.88042 4.53778 7.88066 4.6105 7.86639C4.68323 7.85211 4.75243 7.82361 4.8141 7.78251C4.87578 7.74141 4.92872 7.68852 4.9699 7.62689C5.01107 7.56526 5.03966 7.49611 5.05402 7.42339C5.06837 7.35068 5.06822 7.27585 5.05357 7.20319C5.03891 7.13054 5.01004 7.0615 4.96862 7.00004C4.92719 6.93858 4.87403 6.88591 4.81219 6.84506C4.68822 6.76885 4.53954 6.74364 4.39738 6.77474C4.25522 6.80584 4.13064 6.89082 4.04982 7.01184C3.969 7.13285 3.93822 7.28048 3.96395 7.42371C3.98968 7.56694 4.06992 7.69462 4.18781 7.77994L4.18725 7.7805ZM4.5 5.0625C4.35082 5.0625 4.20774 5.00324 4.10225 4.89775C3.99676 4.79226 3.9375 4.64918 3.9375 4.5C3.9375 4.35082 3.99676 4.20774 4.10225 4.10225C4.20774 3.99676 4.35082 3.9375 4.5 3.9375C4.64918 3.9375 4.79226 3.99676 4.89775 4.10225C5.00324 4.20774 5.0625 4.35082 5.0625 4.5C5.0625 4.64918 5.00324 4.79226 4.89775 4.89775C4.79226 5.00324 4.64918 5.0625 4.5 5.0625V5.0625ZM4.5 2.25C4.35082 2.25 4.20774 2.19074 4.10225 2.08525C3.99676 1.97976 3.9375 1.83668 3.9375 1.6875C3.9375 1.53832 3.99676 1.39524 4.10225 1.28975C4.20774 1.18426 4.35082 1.125 4.5 1.125C4.64918 1.125 4.79226 1.18426 4.89775 1.28975C5.00324 1.39524 5.0625 1.53832 5.0625 1.6875C5.0625 1.83668 5.00324 1.97976 4.89775 2.08525C4.79226 2.19074 4.64918 2.25 4.5 2.25V2.25Z" fill="#FFFBE5"/>
</svg>
