<svg width="40" height="40" viewBox="0 0 40 40" fill="none" xmlns="http://www.w3.org/2000/svg">
<path d="M21.667 14.9999H29.167L28.3337 18.3333H21.667V33.3333H18.3337V18.3333H11.667V14.9999H18.3337V11.8799C18.3337 8.90825 18.6437 7.82992 19.2237 6.74325C19.792 5.6696 20.67 4.7916 21.7437 4.22325C22.8303 3.64325 23.9087 3.33325 26.8803 3.33325C27.7503 3.33325 28.5137 3.41659 29.167 3.58325V6.66659H26.8803C24.6737 6.66659 24.002 6.79658 23.317 7.16325C22.8103 7.43325 22.4337 7.80992 22.1637 8.31658C21.797 9.00158 21.667 9.67325 21.667 11.8799V14.9999Z" fill="white"/>
</svg>
