<svg width="40" height="40" viewBox="0 0 40 40" fill="none" xmlns="http://www.w3.org/2000/svg">
<path d="M20 27.5C18.5166 27.5 17.0666 27.0601 15.8332 26.236C14.5999 25.4119 13.6386 24.2406 13.0709 22.8701C12.5032 21.4997 12.3547 19.9917 12.6441 18.5368C12.9335 17.082 13.6478 15.7456 14.6967 14.6967C15.7456 13.6478 17.082 12.9335 18.5368 12.6441C19.9917 12.3547 21.4997 12.5032 22.8701 13.0709C24.2406 13.6386 25.4119 14.5999 26.236 15.8332C27.0601 17.0666 27.5 18.5166 27.5 20C27.5 21.9891 26.7098 23.8968 25.3033 25.3033C23.8968 26.7098 21.9891 27.5 20 27.5ZM20 15C19.0111 15 18.0444 15.2932 17.2221 15.8427C16.3999 16.3921 15.759 17.173 15.3806 18.0866C15.0022 19.0002 14.9031 20.0055 15.0961 20.9755C15.289 21.9454 15.7652 22.8363 16.4645 23.5355C17.1637 24.2348 18.0546 24.711 19.0245 24.9039C19.9945 25.0969 20.9998 24.9978 21.9134 24.6194C22.827 24.241 23.6079 23.6001 24.1573 22.7779C24.7068 21.9556 25 20.9889 25 20C24.9959 18.6752 24.4678 17.4058 23.531 16.469C22.5942 15.5322 21.3248 15.0041 20 15ZM26.875 35.625H13.125C10.8044 35.625 8.57876 34.7031 6.93782 33.0622C5.29687 31.4212 4.375 29.1956 4.375 26.875V13.125C4.375 10.8044 5.29687 8.57876 6.93782 6.93782C8.57876 5.29687 10.8044 4.375 13.125 4.375H26.875C29.1956 4.375 31.4212 5.29687 33.0622 6.93782C34.7031 8.57876 35.625 10.8044 35.625 13.125V26.875C35.625 29.1956 34.7031 31.4212 33.0622 33.0622C31.4212 34.7031 29.1956 35.625 26.875 35.625V35.625ZM33.125 13.125C33.125 12.3042 32.9633 11.4915 32.6492 10.7332C32.3352 9.97494 31.8748 9.28595 31.2944 8.70558C30.7141 8.12522 30.0251 7.66484 29.2668 7.35075C28.5085 7.03666 27.6958 6.875 26.875 6.875H13.125C12.3042 6.875 11.4915 7.03666 10.7332 7.35075C9.97494 7.66484 9.28595 8.12522 8.70558 8.70558C8.12522 9.28595 7.66484 9.97494 7.35075 10.7332C7.03666 11.4915 6.875 12.3042 6.875 13.125V26.875C6.875 28.5326 7.53348 30.1223 8.70558 31.2944C9.87769 32.4665 11.4674 33.125 13.125 33.125H26.875C27.6958 33.125 28.5085 32.9633 29.2668 32.6492C30.0251 32.3352 30.7141 31.8748 31.2944 31.2944C31.8748 30.7141 32.3352 30.0251 32.6492 29.2668C32.9633 28.5085 33.125 27.6958 33.125 26.875V13.125ZM30 28.125C30 27.7542 29.89 27.3916 29.684 27.0833C29.478 26.775 29.1851 26.5346 28.8425 26.3927C28.4999 26.2508 28.1229 26.2137 27.7592 26.286C27.3955 26.3584 27.0614 26.537 26.7992 26.7992C26.537 27.0614 26.3584 27.3955 26.286 27.7592C26.2137 28.1229 26.2508 28.4999 26.3927 28.8425C26.5346 29.1851 26.775 29.478 27.0833 29.684C27.3916 29.89 27.7542 30 28.125 30C28.6223 30 29.0992 29.8025 29.4508 29.4508C29.8025 29.0992 30 28.6223 30 28.125Z" fill="white"/>
</svg>
