<svg width="25" height="25" viewBox="0 0 25 25" fill="none" xmlns="http://www.w3.org/2000/svg">
<path fill-rule="evenodd" clip-rule="evenodd" d="M11.6312 21.6125C11.8018 21.7278 11.9935 21.8082 12.1953 21.8491C12.3971 21.8901 12.6049 21.8907 12.807 21.8511C13.009 21.8114 13.2012 21.7322 13.3725 21.6181C13.5438 21.5039 13.6909 21.357 13.8053 21.1858C13.9196 21.0146 13.999 20.8225 14.0389 20.6205C14.0788 20.4186 14.0784 20.2107 14.0377 20.0089C13.997 19.8071 13.9168 19.6153 13.8017 19.4446C13.6866 19.2738 13.539 19.1275 13.3672 19.0141C13.0228 18.8024 12.6098 18.7323 12.2149 18.8187C11.8201 18.9051 11.474 19.1412 11.2495 19.4773C11.025 19.8135 10.9395 20.2236 11.011 20.6214C11.0825 21.0193 11.3053 21.374 11.6328 21.6109L11.6312 21.6125ZM12.5 14.0625C12.0856 14.0625 11.6882 13.8979 11.3951 13.6049C11.1021 13.3118 10.9375 12.9144 10.9375 12.5C10.9375 12.0856 11.1021 11.6882 11.3951 11.3951C11.6882 11.1021 12.0856 10.9375 12.5 10.9375C12.9144 10.9375 13.3118 11.1021 13.6049 11.3951C13.8979 11.6882 14.0625 12.0856 14.0625 12.5C14.0625 12.9144 13.8979 13.3118 13.6049 13.6049C13.3118 13.8979 12.9144 14.0625 12.5 14.0625V14.0625ZM12.5 6.25C12.0856 6.25 11.6882 6.08538 11.3951 5.79235C11.1021 5.49933 10.9375 5.1019 10.9375 4.6875C10.9375 4.2731 11.1021 3.87567 11.3951 3.58265C11.6882 3.28962 12.0856 3.125 12.5 3.125C12.9144 3.125 13.3118 3.28962 13.6049 3.58265C13.8979 3.87567 14.0625 4.2731 14.0625 4.6875C14.0625 5.1019 13.8979 5.49933 13.6049 5.79235C13.3118 6.08538 12.9144 6.25 12.5 6.25V6.25Z" fill="#FFFBE5"/>
</svg>
