<svg width="211" height="76" viewBox="0 0 211 76" fill="none" xmlns="http://www.w3.org/2000/svg">
<path d="M19.0376 35V11.528H24.3296V30.536H33.6176V35H19.0376ZM42.9675 23.12L42.3915 25.28H47.3955L46.8555 23.12C46.5435 21.944 46.2195 20.696 45.8835 19.376C45.5715 18.056 45.2595 16.784 44.9475 15.56H44.8035C44.5155 16.808 44.2155 18.092 43.9035 19.412C43.6155 20.708 43.3035 21.944 42.9675 23.12ZM34.4715 35L41.8155 11.528H48.1875L55.5315 35H49.9155L48.4755 29.42H41.3115L39.8715 35H34.4715ZM58.0962 35V11.528H63.8922L67.6722 21.968C67.9122 22.64 68.1402 23.348 68.3562 24.092C68.5722 24.836 68.8002 25.568 69.0402 26.288H69.1842C69.4242 25.568 69.6402 24.836 69.8322 24.092C70.0482 23.348 70.2762 22.64 70.5162 21.968L74.2242 11.528H79.9842V35H75.1602V26.396C75.1602 25.628 75.1962 24.776 75.2682 23.84C75.3642 22.88 75.4602 21.92 75.5562 20.96C75.6762 20 75.7722 19.148 75.8442 18.404H75.7002L73.7922 23.984L70.4442 32.948H67.5282L64.1802 23.984L62.3082 18.404H62.1642C62.2602 19.148 62.3562 20 62.4522 20.96C62.5482 21.92 62.6322 22.88 62.7042 23.84C62.8002 24.776 62.8482 25.628 62.8482 26.396V35H58.0962ZM91.0261 23.12L90.4501 25.28H95.4541L94.9141 23.12C94.6021 21.944 94.2781 20.696 93.9421 19.376C93.6301 18.056 93.3181 16.784 93.0061 15.56H92.8621C92.5741 16.808 92.2741 18.092 91.9621 19.412C91.6741 20.708 91.3621 21.944 91.0261 23.12ZM82.5301 35L89.8741 11.528H96.2461L103.59 35H97.9741L96.5341 29.42H89.3701L87.9301 35H82.5301ZM106.155 35V11.528H114.615C116.271 11.528 117.783 11.756 119.151 12.212C120.519 12.644 121.611 13.388 122.427 14.444C123.243 15.5 123.651 16.964 123.651 18.836C123.651 20.564 123.267 21.992 122.499 23.12C121.755 24.224 120.747 25.052 119.475 25.604L124.803 35H118.863L114.363 26.54H111.447V35H106.155ZM111.447 22.328H114.183C115.575 22.328 116.631 22.04 117.351 21.464C118.095 20.864 118.467 19.988 118.467 18.836C118.467 17.684 118.095 16.88 117.351 16.424C116.631 15.968 115.575 15.74 114.183 15.74H111.447V22.328ZM137.773 31.112C139.381 31.112 140.653 30.416 141.589 29.024C142.525 27.608 142.993 25.652 142.993 23.156C142.993 20.804 142.525 18.968 141.589 17.648C140.653 16.328 139.381 15.668 137.773 15.668C136.165 15.668 134.893 16.328 133.957 17.648C133.021 18.968 132.553 20.804 132.553 23.156C132.553 25.652 133.021 27.608 133.957 29.024C134.893 30.416 136.165 31.112 137.773 31.112ZM145.513 41.552C143.041 41.552 140.941 40.94 139.213 39.716C137.485 38.516 136.201 37.004 135.361 35.18C132.865 34.652 130.861 33.344 129.349 31.256C127.861 29.168 127.117 26.468 127.117 23.156C127.117 20.588 127.561 18.416 128.449 16.64C129.361 14.84 130.609 13.472 132.193 12.536C133.801 11.576 135.661 11.096 137.773 11.096C139.885 11.096 141.733 11.576 143.317 12.536C144.925 13.472 146.173 14.84 147.061 16.64C147.973 18.44 148.429 20.612 148.429 23.156C148.429 26.3 147.757 28.904 146.413 30.968C145.069 33.008 143.257 34.352 140.977 35C141.529 35.816 142.273 36.404 143.209 36.764C144.169 37.124 145.141 37.304 146.125 37.304C146.629 37.304 147.097 37.256 147.529 37.16C147.985 37.088 148.381 37.004 148.717 36.908L149.653 40.76C149.221 40.976 148.645 41.156 147.925 41.3C147.229 41.468 146.425 41.552 145.513 41.552ZM162.094 35.432C159.046 35.432 156.718 34.532 155.11 32.732C153.502 30.932 152.698 28.064 152.698 24.128V11.528H158.026V24.668C158.026 26.972 158.374 28.58 159.07 29.492C159.766 30.404 160.774 30.86 162.094 30.86C163.414 30.86 164.434 30.404 165.154 29.492C165.874 28.58 166.234 26.972 166.234 24.668V11.528H171.346V24.128C171.346 28.064 170.554 30.932 168.97 32.732C167.41 34.532 165.118 35.432 162.094 35.432ZM176.784 35V11.528H191.472V15.992H182.076V20.708H190.068V25.136H182.076V30.536H191.832V35H176.784Z" fill="white"/>
<path d="M2.40332 69V52.6H7.52832C8.64499 52.6 9.63665 52.75 10.5033 53.05C11.37 53.3333 12.045 53.8167 12.5283 54.5C13.0283 55.1667 13.2783 56.0667 13.2783 57.2C13.2783 58.4667 12.945 59.4917 12.2783 60.275C11.6117 61.0417 10.7117 61.5667 9.57832 61.85L13.7533 69H11.4033L7.45332 62.075H4.47832V69H2.40332ZM4.47832 60.375H7.22832C8.51165 60.375 9.49499 60.1167 10.1783 59.6C10.8617 59.0667 11.2033 58.2667 11.2033 57.2C11.2033 56.1167 10.8617 55.3583 10.1783 54.925C9.49499 54.4917 8.51165 54.275 7.22832 54.275H4.47832V60.375ZM16.6367 69V52.6H26.0867V54.35H18.7117V59.5H24.9367V61.275H18.7117V67.225H26.3367V69H16.6367ZM29.8203 69V52.6H34.4953C35.7286 52.6 36.8036 52.75 37.7203 53.05C38.637 53.35 39.3536 53.8583 39.8703 54.575C40.387 55.275 40.6453 56.225 40.6453 57.425C40.6453 59.1417 40.087 60.4167 38.9703 61.25C37.8536 62.0833 36.3953 62.5 34.5953 62.5H31.8953V69H29.8203ZM31.8953 60.8H34.3453C35.7786 60.8 36.837 60.5333 37.5203 60C38.2203 59.45 38.5703 58.5917 38.5703 57.425C38.5703 56.2417 38.2036 55.425 37.4703 54.975C36.7536 54.5083 35.6786 54.275 34.2453 54.275H31.8953V60.8ZM50.0305 69.3C48.6638 69.3 47.4471 68.95 46.3805 68.25C45.3305 67.55 44.5055 66.5583 43.9055 65.275C43.3221 63.9917 43.0305 62.475 43.0305 60.725C43.0305 58.975 43.3221 57.475 43.9055 56.225C44.5055 54.9583 45.3305 53.9917 46.3805 53.325C47.4471 52.6417 48.6638 52.3 50.0305 52.3C51.4138 52.3 52.6305 52.6417 53.6805 53.325C54.7305 53.9917 55.5555 54.9583 56.1555 56.225C56.7555 57.475 57.0555 58.975 57.0555 60.725C57.0555 62.475 56.7555 63.9917 56.1555 65.275C55.5555 66.5583 54.7305 67.55 53.6805 68.25C52.6305 68.95 51.4138 69.3 50.0305 69.3ZM50.0305 67.475C51.0138 67.475 51.8638 67.2 52.5805 66.65C53.3138 66.0833 53.8805 65.3 54.2805 64.3C54.6805 63.2833 54.8805 62.0917 54.8805 60.725C54.8805 58.6917 54.4388 57.0833 53.5555 55.9C52.6721 54.7167 51.4971 54.125 50.0305 54.125C48.5638 54.125 47.3888 54.7167 46.5055 55.9C45.6221 57.0833 45.1805 58.6917 45.1805 60.725C45.1805 62.0917 45.3805 63.2833 45.7805 64.3C46.1805 65.3 46.7471 66.0833 47.4805 66.65C48.2138 67.2 49.0638 67.475 50.0305 67.475ZM65.132 69.3C63.982 69.3 62.9154 69.0833 61.932 68.65C60.9487 68.2 60.0987 67.6083 59.382 66.875L60.632 65.425C61.2154 66.0417 61.8987 66.5417 62.682 66.925C63.482 67.2917 64.307 67.475 65.157 67.475C66.2404 67.475 67.082 67.2333 67.682 66.75C68.282 66.25 68.582 65.6 68.582 64.8C68.582 64.2333 68.457 63.7833 68.207 63.45C67.9737 63.1167 67.6487 62.8333 67.232 62.6C66.832 62.3667 66.3737 62.1333 65.857 61.9L63.507 60.875C62.9904 60.6583 62.4737 60.375 61.957 60.025C61.457 59.675 61.032 59.225 60.682 58.675C60.3487 58.125 60.182 57.45 60.182 56.65C60.182 55.8167 60.3987 55.075 60.832 54.425C61.282 53.7583 61.8987 53.2417 62.682 52.875C63.4654 52.4917 64.3487 52.3 65.332 52.3C66.3154 52.3 67.2237 52.4917 68.057 52.875C68.8904 53.2417 69.5987 53.725 70.182 54.325L69.057 55.675C68.557 55.1917 67.9987 54.8167 67.382 54.55C66.782 54.2667 66.0987 54.125 65.332 54.125C64.4154 54.125 63.6737 54.3417 63.107 54.775C62.557 55.2083 62.282 55.7917 62.282 56.525C62.282 57.0417 62.4154 57.475 62.682 57.825C62.9654 58.1583 63.3154 58.4333 63.732 58.65C64.1487 58.8667 64.5737 59.0667 65.007 59.25L67.332 60.25C67.9654 60.5167 68.532 60.8417 69.032 61.225C69.5487 61.5917 69.957 62.05 70.257 62.6C70.557 63.1333 70.707 63.8083 70.707 64.625C70.707 65.4917 70.482 66.2833 70.032 67C69.582 67.7 68.9404 68.2583 68.107 68.675C67.2737 69.0917 66.282 69.3 65.132 69.3ZM76.8482 69V54.35H71.8982V52.6H83.8982V54.35H78.9482V69H76.8482ZM86.8516 69V52.6H96.3016V54.35H88.9266V59.5H95.1516V61.275H88.9266V67.225H96.5516V69H86.8516ZM100.035 69V52.6H105.16C106.277 52.6 107.268 52.75 108.135 53.05C109.002 53.3333 109.677 53.8167 110.16 54.5C110.66 55.1667 110.91 56.0667 110.91 57.2C110.91 58.4667 110.577 59.4917 109.91 60.275C109.243 61.0417 108.343 61.5667 107.21 61.85L111.385 69H109.035L105.085 62.075H102.11V69H100.035ZM102.11 60.375H104.86C106.143 60.375 107.127 60.1167 107.81 59.6C108.493 59.0667 108.835 58.2667 108.835 57.2C108.835 56.1167 108.493 55.3583 107.81 54.925C107.127 54.4917 106.143 54.275 104.86 54.275H102.11V60.375ZM114.269 69V52.6H116.344V69H114.269ZM114.894 51.575L113.969 50.525L117.519 47.325L118.694 48.7L114.894 51.575ZM123.661 59.825L122.886 62.325H127.811L127.036 59.825C126.736 58.9083 126.453 58 126.186 57.1C125.919 56.1833 125.653 55.25 125.386 54.3H125.286C125.036 55.25 124.778 56.1833 124.511 57.1C124.244 58 123.961 58.9083 123.661 59.825ZM118.661 69L124.211 52.6H126.561L132.111 69H129.886L128.336 64H122.361L120.786 69H118.661ZM141.914 56.15C141.914 56.6 141.981 57.0667 142.114 57.55C142.264 58.0333 142.456 58.525 142.689 59.025C143.439 58.525 144.089 58.0083 144.639 57.475C145.206 56.925 145.489 56.2917 145.489 55.575C145.489 55.0917 145.364 54.675 145.114 54.325C144.881 53.9583 144.489 53.775 143.939 53.775C143.323 53.775 142.831 54 142.464 54.45C142.098 54.9 141.914 55.4667 141.914 56.15ZM142.989 69.3C142.006 69.3 141.131 69.1083 140.364 68.725C139.614 68.325 139.031 67.7833 138.614 67.1C138.198 66.4167 137.989 65.6333 137.989 64.75C137.989 64.0167 138.139 63.3667 138.439 62.8C138.756 62.2333 139.156 61.725 139.639 61.275C140.123 60.825 140.648 60.4083 141.214 60.025C140.881 59.3417 140.614 58.6833 140.414 58.05C140.231 57.4 140.139 56.775 140.139 56.175C140.139 55.4417 140.298 54.7833 140.614 54.2C140.931 53.6167 141.373 53.1583 141.939 52.825C142.523 52.475 143.189 52.3 143.939 52.3C144.956 52.3 145.748 52.6 146.314 53.2C146.881 53.8 147.164 54.5833 147.164 55.55C147.164 56.2667 146.981 56.9083 146.614 57.475C146.248 58.0417 145.781 58.5583 145.214 59.025C144.664 59.4917 144.081 59.95 143.464 60.4C143.998 61.2333 144.631 62.05 145.364 62.85C146.098 63.6333 146.848 64.35 147.614 65C148.114 64.3167 148.556 63.575 148.939 62.775C149.339 61.9583 149.664 61.0833 149.914 60.15H151.839C151.523 61.2167 151.123 62.25 150.639 63.25C150.173 64.2333 149.614 65.1583 148.964 66.025C149.531 66.4083 150.073 66.7333 150.589 67C151.106 67.2667 151.589 67.4667 152.039 67.6L151.489 69.3C150.923 69.1333 150.314 68.9 149.664 68.6C149.031 68.2833 148.381 67.8917 147.714 67.425C147.098 67.9917 146.398 68.45 145.614 68.8C144.831 69.1333 143.956 69.3 142.989 69.3ZM139.989 64.625C139.989 65.5417 140.298 66.275 140.914 66.825C141.548 67.375 142.314 67.65 143.214 67.65C143.781 67.65 144.323 67.5333 144.839 67.3C145.373 67.0667 145.873 66.7417 146.339 66.325C145.539 65.625 144.764 64.8583 144.014 64.025C143.281 63.1917 142.623 62.3333 142.039 61.45C141.473 61.9167 140.989 62.4083 140.589 62.925C140.189 63.425 139.989 63.9917 139.989 64.625ZM165.879 69.3C164.512 69.3 163.287 68.9667 162.204 68.3C161.137 67.6167 160.287 66.6417 159.654 65.375C159.037 64.1083 158.729 62.5833 158.729 60.8C158.729 59.0333 159.045 57.5167 159.679 56.25C160.312 54.9833 161.179 54.0083 162.279 53.325C163.379 52.6417 164.62 52.3 166.004 52.3C167.004 52.3 167.887 52.5083 168.654 52.925C169.42 53.325 170.037 53.7917 170.504 54.325L169.379 55.675C168.945 55.2083 168.454 54.8333 167.904 54.55C167.354 54.2667 166.729 54.125 166.029 54.125C164.995 54.125 164.087 54.4 163.304 54.95C162.537 55.4833 161.937 56.2417 161.504 57.225C161.087 58.2083 160.879 59.3833 160.879 60.75C160.879 62.1167 161.087 63.3083 161.504 64.325C161.92 65.325 162.504 66.1 163.254 66.65C164.02 67.2 164.92 67.475 165.954 67.475C166.737 67.475 167.437 67.3083 168.054 66.975C168.67 66.6417 169.237 66.1917 169.754 65.625L170.904 66.925C170.254 67.675 169.52 68.2583 168.704 68.675C167.887 69.0917 166.945 69.3 165.879 69.3ZM176.786 59.825L176.011 62.325H180.936L180.161 59.825C179.861 58.9083 179.578 58 179.311 57.1C179.044 56.1833 178.778 55.25 178.511 54.3H178.411C178.161 55.25 177.903 56.1833 177.636 57.1C177.369 58 177.086 58.9083 176.786 59.825ZM171.786 69L177.336 52.6H179.686L185.236 69H183.011L181.461 64H175.486L173.911 69H171.786ZM187.56 69V52.6H197.01V54.35H189.635V59.9H195.885V61.65H189.635V69H187.56ZM199.913 69V52.6H209.363V54.35H201.988V59.5H208.213V61.275H201.988V67.225H209.613V69H199.913ZM204.488 51.575L203.563 50.525L207.113 47.325L208.288 48.7L204.488 51.575Z" fill="#FFFBE5"/>
</svg>
