<svg width="37" height="37" viewBox="0 0 37 37" fill="none" xmlns="http://www.w3.org/2000/svg">
<path d="M18.5003 6.1665C20.1358 6.1665 21.7043 6.8162 22.8608 7.97268C24.0173 9.12915 24.667 10.6977 24.667 12.3332C24.667 13.9687 24.0173 15.5372 22.8608 16.6937C21.7043 17.8501 20.1358 18.4998 18.5003 18.4998C16.8648 18.4998 15.2963 17.8501 14.1398 16.6937C12.9834 15.5372 12.3337 13.9687 12.3337 12.3332C12.3337 10.6977 12.9834 9.12915 14.1398 7.97268C15.2963 6.8162 16.8648 6.1665 18.5003 6.1665M18.5003 9.24984C17.6826 9.24984 16.8983 9.57469 16.3201 10.1529C15.7418 10.7312 15.417 11.5154 15.417 12.3332C15.417 13.1509 15.7418 13.9352 16.3201 14.5134C16.8983 15.0917 17.6826 15.4165 18.5003 15.4165C19.3181 15.4165 20.1023 15.0917 20.6806 14.5134C21.2588 13.9352 21.5837 13.1509 21.5837 12.3332C21.5837 11.5154 21.2588 10.7312 20.6806 10.1529C20.1023 9.57469 19.3181 9.24984 18.5003 9.24984M18.5003 20.0415C22.6166 20.0415 30.8337 22.0919 30.8337 26.2082V30.8332H6.16699V26.2082C6.16699 22.0919 14.3841 20.0415 18.5003 20.0415ZM18.5003 22.9707C13.9216 22.9707 9.09616 25.2215 9.09616 26.2082V27.904H27.9045V26.2082C27.9045 25.2215 23.0791 22.9707 18.5003 22.9707V22.9707Z" fill="#FFFBE5"/>
</svg>
